<svg xmlns="http://www.w3.org/2000/svg" viewBox="0 0 512 512" width="512" height="512"><rect width="512" height="512" fill="#0f3a24"></rect><rect x="64" width="64" height="512" fill="#13442b"></rect><rect x="192" width="64" height="512" fill="#13442b"></rect><rect x="320" width="64" height="512" fill="#13442b"></rect><rect x="448" width="64" height="512" fill="#13442b"></rect><circle cx="256.0" cy="256.0" r="204.8" fill="none" stroke="#f3f7f0" stroke-opacity=".18" stroke-width="6.1"></circle><rect x="0" y="252.9" width="512" height="6.1" fill="#f3f7f0" fill-opacity=".18"></rect><rect x="97.28" y="154.546176" width="149.1968" height="202.90764800000002" rx="17.9" fill="#0b2a1a" stroke="#1b1a14" stroke-width="6.7"></rect><g transform="translate(137.789915136,203.24401152000002) scale(1.1362828288000002)" fill="#f3f7f0"><path d="M0,0h60v16h-60z" fill-rule="evenodd"></path><path d="M0,0h16v100h-16z" fill-rule="evenodd"></path><path d="M0,84h60v16h-60z" fill-rule="evenodd"></path><path d="M0,42h46v16h-46z" fill-rule="evenodd"></path></g><rect x="100.636928" y="253.7" width="142.482944" height="4.7" fill="rgba(0,0,0,.42)"></rect><rect x="265.5232" y="154.546176" width="149.1968" height="202.90764800000002" rx="17.9" fill="#f5c430" stroke="#1b1a14" stroke-width="6.7"></rect><g transform="translate(306.033115136,203.24401152000002) scale(1.1362828288000002)" fill="#1b1a14"><path d="M0,0H36A29,29 0 0 1 36,58H0Z M16,16V42H36A13,13 0 0 0 36,16Z" fill-rule="evenodd"></path><path d="M0,0h16v100h-16z" fill-rule="evenodd"></path><path d="M28,50h18l16,50h-18z" fill-rule="evenodd"></path></g><rect x="268.88012799999996" y="253.7" width="142.482944" height="4.7" fill="rgba(0,0,0,.42)"></rect></svg>