<svg xmlns="http://www.w3.org/2000/svg" viewBox="0 0 32 32" width="32" height="32"><rect width="32" height="32" rx="6" fill="#0f3a24"></rect><rect x="1.75" y="6.5" width="13.5" height="19" rx="2.0" fill="#0b2a1a" stroke="#1b1a14" stroke-width="1.4"></rect><g transform="translate(5.308,11.059999999999999) scale(0.10640000000000001)" fill="#f3f7f0"><path d="M0,0h60v16h-60z" fill-rule="evenodd"></path><path d="M0,0h16v100h-16z" fill-rule="evenodd"></path><path d="M0,84h60v16h-60z" fill-rule="evenodd"></path><path d="M0,42h46v16h-46z" fill-rule="evenodd"></path></g><rect x="2.45" y="15.5" width="12.1" height="1.0" fill="rgba(0,0,0,.42)"></rect><rect x="16.75" y="6.5" width="13.5" height="19" rx="2.0" fill="#f5c430" stroke="#1b1a14" stroke-width="1.4"></rect><g transform="translate(20.308,11.059999999999999) scale(0.10640000000000001)" fill="#1b1a14"><path d="M0,0H36A29,29 0 0 1 36,58H0Z M16,16V42H36A13,13 0 0 0 36,16Z" fill-rule="evenodd"></path><path d="M0,0h16v100h-16z" fill-rule="evenodd"></path><path d="M28,50h18l16,50h-18z" fill-rule="evenodd"></path></g><rect x="17.45" y="15.5" width="12.1" height="1.0" fill="rgba(0,0,0,.42)"></rect></svg>